<?xml version="1.0" standalone="no"?>
<!DOCTYPE svg PUBLIC "-//W3C//DTD SVG 20010904//EN"
 "http://www.w3.org/TR/2001/REC-SVG-20010904/DTD/svg10.dtd">
<svg version="1.0" xmlns="http://www.w3.org/2000/svg"
 width="396.000000pt" height="230.000000pt" viewBox="0 0 396.000000 230.000000"
 preserveAspectRatio="xMidYMid meet">

<g transform="translate(0.000000,230.000000) scale(0.100000,-0.100000)"
fill="#000000" stroke="none">
<path d="M2130 1863 c0 -9 -88 -379 -95 -404 -4 -12 2 -19 22 -23 15 -4 35 -9
44 -12 13 -3 20 15 39 98 12 57 26 107 31 113 5 5 9 -40 9 -107 0 -64 3 -119
8 -121 4 -2 18 -7 32 -10 23 -6 30 2 84 98 33 58 61 104 62 102 2 -1 -9 -51
-23 -110 -14 -60 -22 -111 -19 -114 3 -3 22 -6 42 -7 l36 -1 49 200 c26 110
48 205 48 211 1 9 -68 34 -92 34 -3 0 -38 -55 -78 -122 l-74 -122 -9 142 -9
142 -36 10 c-43 12 -71 13 -71 3z m87 -295 c-3 -8 -6 -5 -6 6 -1 11 2 17 5 13
3 -3 4 -12 1 -19z m16 -88 c3 -11 1 -20 -4 -20 -5 0 -9 9 -9 20 0 11 2 20 4
20 2 0 6 -9 9 -20z"/>
<path d="M1610 1828 c-52 -11 -97 -22 -99 -24 -4 -4 87 -425 93 -431 6 -6 190
39 218 53 16 8 36 31 46 50 16 34 15 41 -7 147 -30 149 -50 194 -95 212 -43
18 -38 18 -156 -7z m57 -34 c-3 -3 -12 -4 -19 -1 -8 3 -5 6 6 6 11 1 17 -2 13
-5z m-40 -10 c-3 -3 -12 -4 -19 -1 -8 3 -5 6 6 6 11 1 17 -2 13 -5z m144 -11
c13 -16 12 -17 -3 -4 -17 13 -22 21 -14 21 2 0 10 -8 17 -17z m-184 1 c-3 -3
-12 -4 -19 -1 -8 3 -5 6 6 6 11 1 17 -2 13 -5z m158 -57 c20 -49 39 -160 32
-189 -7 -27 -20 -35 -74 -48 l-32 -8 -16 77 c-9 42 -23 102 -30 133 -15 65
-15 65 63 67 40 1 44 -2 57 -32z m85 -220 c0 -2 -10 -12 -22 -23 l-23 -19 19
23 c18 21 26 27 26 19z"/>
<path d="M1170 1633 c-8 -3 -48 -28 -88 -55 l-73 -49 57 -82 c139 -199 195
-277 201 -277 3 0 21 9 39 21 l34 21 -31 44 c-17 26 -28 52 -25 60 5 13 15 11
61 -15 30 -17 60 -31 67 -31 19 0 75 50 63 56 -5 2 -31 18 -57 34 -45 28 -48
33 -48 73 0 36 -9 56 -49 114 -57 80 -100 105 -151 86z m-30 -67 c0 -2 -16
-16 -35 -30 -19 -15 -35 -23 -35 -19 0 4 15 18 33 30 35 24 37 25 37 19z m99
-61 c17 -20 31 -45 31 -57 0 -24 -27 -58 -45 -58 -10 0 -85 101 -85 115 0 5
51 34 61 35 4 0 21 -16 38 -35z m88 -77 c-3 -7 -5 -2 -5 12 0 14 2 19 5 13 2
-7 2 -19 0 -25z m-28 -51 c-2 -2 -20 -14 -39 -26 l-35 -23 30 26 c17 14 34 26
39 26 5 0 7 -1 5 -3z m-79 -57 c0 -5 -2 -10 -4 -10 -3 0 -8 5 -11 10 -3 6 -1
10 4 10 6 0 11 -4 11 -10z"/>
<path d="M2690 1499 c-140 -173 -151 -207 -88 -283 37 -45 95 -76 143 -76 45
0 81 32 205 185 l89 110 -32 28 c-17 15 -35 26 -39 25 -4 -2 -51 -57 -105
-123 -104 -127 -124 -140 -169 -111 -46 31 -34 62 76 198 l100 123 -32 27
c-18 15 -35 27 -38 27 -3 0 -52 -58 -110 -130z m40 -33 c0 -2 -8 -10 -17 -17
-16 -13 -17 -12 -4 4 13 16 21 21 21 13z m250 -40 c0 -2 -8 -10 -17 -17 -16
-13 -17 -12 -4 4 13 16 21 21 21 13z m-90 -110 c0 -2 -8 -10 -17 -17 -16 -13
-17 -12 -4 4 13 16 21 21 21 13z m-229 -93 c13 -16 12 -17 -3 -4 -10 7 -18 15
-18 17 0 8 8 3 21 -13z"/>
<path d="M726 1204 c-21 -31 -23 -41 -13 -53 23 -30 289 -331 292 -331 5 0 45
66 45 73 0 4 -14 22 -31 41 l-30 35 27 40 c15 23 28 41 29 41 1 0 22 -7 46
-15 44 -16 44 -16 66 12 13 15 23 33 23 39 0 5 -91 41 -202 79 -112 37 -208
70 -215 72 -6 3 -23 -12 -37 -33z m54 -49 c14 -19 14 -19 -2 -6 -10 7 -18 18
-18 24 0 6 1 8 3 6 1 -2 9 -13 17 -24z m152 -68 c25 -11 26 -14 13 -31 -15
-19 -15 -19 -40 4 -41 39 -28 52 27 27z m8 -117 c0 -5 -2 -10 -4 -10 -3 0 -8
5 -11 10 -3 6 -1 10 4 10 6 0 11 -4 11 -10z"/>
<path d="M3172 1210 c-18 -11 -32 -22 -32 -25 0 -3 10 -24 22 -45 13 -21 20
-40 18 -43 -3 -2 -73 -41 -157 -87 l-151 -84 19 -38 c11 -21 22 -38 26 -38 6
0 171 90 270 147 l42 24 23 -40 c13 -23 27 -41 31 -41 11 0 67 30 67 36 0 9
-132 244 -139 249 -4 2 -22 -5 -39 -15z m68 -110 c16 -32 17 -38 5 -33 -9 3
-14 8 -11 11 3 2 -1 17 -10 33 -8 16 -12 29 -9 29 2 0 14 -18 25 -40z m-40
-45 c0 -2 -13 -11 -30 -20 -38 -19 -40 -11 -2 9 31 17 32 18 32 11z m90 -49
c0 -12 -5 -7 -19 24 -11 24 -11 24 3 6 9 -11 16 -24 16 -30z m-160 9 c0 -2
-18 -14 -40 -25 -22 -11 -40 -18 -40 -15 0 2 17 13 38 24 42 23 42 23 42 16z
m-90 -50 c0 -2 -18 -14 -40 -25 -22 -11 -40 -18 -40 -15 0 2 17 13 38 24 42
23 42 23 42 16z"/>
<path d="M573 785 c-60 -26 -99 -148 -70 -217 9 -20 27 -44 42 -54 26 -17 226
-63 278 -64 76 -1 127 71 127 179 0 57 -3 66 -30 91 -18 17 -50 33 -78 39 -26
5 -48 9 -49 7 -1 -1 -5 -20 -8 -42 -7 -38 -5 -40 26 -54 43 -20 56 -42 44 -76
-16 -44 -35 -50 -122 -35 -115 19 -143 33 -143 71 0 47 16 70 49 70 30 0 41
18 41 66 0 34 -52 43 -107 19z m42 -42 c-11 -3 -27 -10 -35 -17 -13 -10 -13
-9 -1 7 7 9 23 16 35 16 20 -1 20 -2 1 -6z m276 -60 c13 -16 12 -17 -3 -4 -10
7 -18 15 -18 17 0 8 8 3 21 -13z"/>
<path d="M3255 700 c-88 -15 -182 -31 -209 -34 l-49 -8 7 -56 c4 -31 11 -86
17 -120 l11 -64 37 7 c20 4 39 9 42 11 3 2 1 35 -6 74 -12 70 -12 70 11 75 13
3 35 7 48 10 23 5 25 2 31 -50 4 -30 10 -57 14 -59 3 -2 23 -1 44 2 l38 4 -3
62 -3 61 41 3 42 3 8 -68 9 -68 38 1 c21 1 40 4 43 7 9 9 -30 230 -41 233 -6
1 -82 -11 -170 -26z m138 -27 c-7 -2 -19 -2 -25 0 -7 3 -2 5 12 5 14 0 19 -2
13 -5z m-60 -10 c-7 -2 -21 -2 -30 0 -10 3 -4 5 12 5 17 0 24 -2 18 -5z m-75
-10 c-18 -3 -28 -11 -29 -21 0 -11 -3 -12 -6 -4 -2 6 -17 13 -31 13 -23 1 -22
3 8 9 19 4 46 7 60 7 23 0 23 0 -2 -4z m149 -25 c-3 -7 -5 -2 -5 12 0 14 2 19
5 13 2 -7 2 -19 0 -25z m-264 5 c-7 -2 -19 -2 -25 0 -7 3 -2 5 12 5 14 0 19
-2 13 -5z m-68 -10 c-11 -3 -23 -10 -27 -17 -5 -7 -8 -7 -8 0 0 16 11 24 34
23 20 -1 20 -1 1 -6z m162 -50 c-3 -10 -5 -4 -5 12 0 17 2 24 5 18 2 -7 2 -21
0 -30z m180 -5 c-3 -7 -5 -2 -5 12 0 14 2 19 5 13 2 -7 2 -19 0 -25z m-170
-40 c-3 -8 -6 -5 -6 6 -1 11 2 17 5 13 3 -3 4 -12 1 -19z"/>
</g>
</svg>
